<svg id="Layer_1" data-name="Layer 1" xmlns="http://www.w3.org/2000/svg" width="606" height="646" viewBox="0 0 606 646">
  <defs>
    <style>
      .cls-1 {
        fill: #6c3;
      }
    </style>
  </defs>
  <title>lb_logo</title>
  <g>
    <g>
      <path class="cls-1" d="M367.08,51.09a213.92,213.92,0,0,0-27.72-2.6L350.23,63Z"/>
      <path class="cls-1" d="M161.79,473.61q-9.56,20.61-30.37,37.67T95.19,528.36q-12.94,0-13-25.85,0-12.06,4.55-40l38.48-240.91q11.6-72.45,42.7-102.82t93.83-30.47c6,0,11.64.17,17.08.52l54-40.54c-2.21,0-4.46-.06-6.78-.06q-99.63.16-175.93,61.53T58.89,262.66l-32,200.23-4.57,25.6a252.21,252.21,0,0,0-3.7,42.86q0,34.51,34.8,34.46,30.56,0,75.52-30.6T173.89,484Q173.89,477.62,161.79,473.61Z"/>
    </g>
    <path class="cls-1" d="M192.21,384.24Q237.42,330,292.32,296t96.84-34.13q60.39-.09,60.5,70.45.13,86.37-79.57,147.67T177.71,541.46q-14.25,0-25.13-.83l-33.94-2.25q-2.92,0-15.91-.55a196.74,196.74,0,0,0,12.91-46L155.3,243.48q14.53-89.56,96.16-152.75T434.09,27.4a247.25,247.25,0,0,1,40.24,3.1L412.78,72a223.05,223.05,0,0,0-44.84-4.82q-124.89.18-146,133.84ZM174.44,498.05q38.88,14.59,77.73,14.53,57.66-.09,93.52-46t35.75-119.39q-.06-42.8-33.9-42.75-37.6.06-88.1,38.91Q191,396.07,179.4,467Z"/>
  </g>
  <path class="cls-1" d="M536.11,70.75H214v-.24l-1.09.49H350.5A171.47,171.47,0,0,1,522,242.46V403.6A171.47,171.47,0,0,1,350.5,575.06H88V629.5H405.77A183.73,183.73,0,0,0,589.5,445.77V200.23A183.11,183.11,0,0,0,536.11,70.75Z"/>
  <path class="cls-1" d="M43.11,575H101a0,0,0,0,1,0,0v54.45a0,0,0,0,1,0,0H43.11A27.11,27.11,0,0,1,16,602.36v-.23A27.11,27.11,0,0,1,43.11,575Z"/>
  <path class="cls-1" d="M213.78,71S318.45,21.06,401.09,17,537,71.91,537,71.91"/>
</svg>
